<svg xmlns="http://www.w3.org/2000/svg" xmlns:xlink="http://www.w3.org/1999/xlink" width="16" height="32" version="1.1" style=""><rect id="backgroundrect" width="100%" height="100%" x="0" y="0" fill="none" stroke="none"/>
    <!-- Generator: Sketch 48.2 (47327) - http://www.bohemiancoding.com/sketch -->
    <title>home-bio-icon</title>
    <desc>Created with Sketch.</desc>
    <defs/>
    
<g class="currentLayer" style=""><title>Layer 1</title><g id="01_Home_1200_01-(1120+)" stroke="none" stroke-width="1" fill="#ffffff" fill-rule="evenodd" class="" fill-opacity="1">
        <g id="home-bio" fill="#ffffff" fill-opacity="1">
            <path d="M7.3866999999999905,32 C5.8677000000000135,27.908000000000015 3.405699999999996,24.711000000000013 -0.00030000000000995897,22.409999999999997 L-0.00030000000000995897,20.659999999999997 C2.3866999999999905,21.448000000000008 4.64070000000001,22.771000000000015 6.760699999999986,24.627999999999986 C5.975699999999989,23.495000000000005 5.583699999999993,21.744 5.583699999999993,19.37700000000001 C5.583699999999993,17.84899999999999 6.092700000000008,15.893 7.111700000000013,13.509999999999991 C8.145700000000005,11.061000000000007 8.663700000000006,9.031000000000006 8.663700000000006,7.420000000000016 C8.663700000000006,5.053999999999974 7.9787000000000035,3.0160000000000196 6.6107000000000085,1.3070000000000164 L8.663700000000006,0 C10.299700000000001,2.285000000000025 11.116700000000009,4.757999999999981 11.116700000000009,7.420000000000016 C11.116700000000009,8.242000000000019 11.02170000000001,9.134000000000015 10.829700000000003,10.096000000000004 C10.63669999999999,11.056999999999988 10.182700000000011,12.393 9.464699999999993,14.102000000000004 C8.512699999999995,16.304000000000002 8.037700000000001,18.062000000000012 8.037700000000001,19.37700000000001 C8.037700000000001,21.793000000000006 8.429699999999997,23.543999999999983 9.214699999999993,24.627999999999986 C11.334699999999998,22.771000000000015 13.595699999999994,21.448000000000008 15.999700000000004,20.659999999999997 L15.999700000000004,22.409999999999997 C12.594700000000003,24.711000000000013 10.1327,27.908000000000015 8.613699999999994,32 L7.3866999999999905,32 z" id="home-bio-icon" fill="#ffffff" fill-opacity="1"/>
        </g>
    </g></g></svg>