<?xml version="1.0" encoding="UTF-8"?>
<svg width="16px" height="32px" viewBox="0 0 16 32" version="1.1" xmlns="http://www.w3.org/2000/svg" xmlns:xlink="http://www.w3.org/1999/xlink">
    <!-- Generator: Sketch 48.2 (47327) - http://www.bohemiancoding.com/sketch -->
    <title>home-bio-icon</title>
    <desc>Created with Sketch.</desc>
    <defs></defs>
    <g id="01_Home_1200_01-(1120+)" stroke="none" stroke-width="1" fill="none" fill-rule="evenodd" transform="translate(-140.000000, -284.000000)">
        <g id="home-bio" transform="translate(140.000000, 265.000000)" fill="#000000">
            <path d="M7.3867,51 C5.8677,46.908 3.4057,43.711 -0.0003,41.41 L-0.0003,39.66 C2.3867,40.448 4.6407,41.771 6.7607,43.628 C5.9757,42.495 5.5837,40.744 5.5837,38.377 C5.5837,36.849 6.0927,34.893 7.1117,32.51 C8.1457,30.061 8.6637,28.031 8.6637,26.42 C8.6637,24.054 7.9787,22.016 6.6107,20.307 L8.6637,19 C10.2997,21.285 11.1167,23.758 11.1167,26.42 C11.1167,27.242 11.0217,28.134 10.8297,29.096 C10.6367,30.057 10.1827,31.393 9.4647,33.102 C8.5127,35.304 8.0377,37.062 8.0377,38.377 C8.0377,40.793 8.4297,42.544 9.2147,43.628 C11.3347,41.771 13.5957,40.448 15.9997,39.66 L15.9997,41.41 C12.5947,43.711 10.1327,46.908 8.6137,51 L7.3867,51 Z" id="home-bio-icon"></path>
        </g>
    </g>
</svg>