<?xml version="1.0" encoding="utf-8"?>
<!-- Generator: Adobe Illustrator 17.1.0, SVG Export Plug-In . SVG Version: 6.00 Build 0)  -->
<!DOCTYPE svg PUBLIC "-//W3C//DTD SVG 1.1//EN" "http://www.w3.org/Graphics/SVG/1.1/DTD/svg11.dtd">
<svg version="1.1" id="Layer_1" xmlns="http://www.w3.org/2000/svg" xmlns:xlink="http://www.w3.org/1999/xlink" x="0px" y="0px"
	 viewBox="0 0 43 19" enable-background="new 0 0 43 19" xml:space="preserve">
<title>infinity-icon</title>
<desc>Created with Sketch.</desc>
<g id="_x30_1_x5F_Home_x5F_1200_x5F_01-_x28_1120_x2B__x29_" transform="translate(-667.000000, -4303.000000)">
	<g id="footer" transform="translate(100.000000, 4290.000000)">
		<g id="footer-copyright" transform="translate(390.000000, 0.000000)">
			<path id="infinity-icon" fill="#FFFFFF" d="M219.3,24.2c0,1.4-0.9,2.9-2.8,4.7c-2,1.9-3.9,2.8-5.7,2.8c-1.6,0-3.6-0.6-6.1-1.9
				c-0.3-0.2-2.4-1.4-6.1-3.6c-2.2,3.6-5.4,5.3-9.8,5c-2-0.1-4.2-1-6.5-2.6c-2.4-1.8-3.9-3.7-4.5-5.8c-0.2-0.8-0.2-1.5-0.2-2.2
				c0-2.1,0.8-3.7,2.5-4.9c1.5-1,3.4-1.6,5.8-1.6c1.8,0,3.7,0.4,5.6,1.3c0.9,0.4,2.7,1.5,5.3,3.2c2-1.8,3.6-3,4.9-3.7
				c1.8-0.9,3.7-1.4,5.8-1.4s4.6,1.3,7.5,4C217.8,20.3,219.3,22.5,219.3,24.2z M213.3,25.3c0-1.1-1.2-2.5-3.7-4.3
				c-1.1-0.8-2.5-1.2-4.1-1.2c-1.6,0-2.5,0.4-2.9,1.2c5.2,3.6,8.4,5.4,9.6,5.4C213,26.4,213.3,26.1,213.3,25.3z M193.4,23.3
				c-5-2.5-8-3.7-8.8-3.7c-0.6,0-0.9,0.3-0.9,0.8c0,0.6,0.3,1.3,1,2.1s1.4,1.2,2.1,1.5c1.4,0.6,2.6,1,3.5,1
				C191.6,25,192.6,24.4,193.4,23.3z"/>
		</g>
	</g>
</g>
</svg>
