<?xml version="1.0" encoding="UTF-8"?>
<svg width="43px" height="19px" viewBox="0 0 43 19" version="1.1" xmlns="http://www.w3.org/2000/svg" xmlns:xlink="http://www.w3.org/1999/xlink">
    <!-- Generator: Sketch 48.2 (47327) - http://www.bohemiancoding.com/sketch -->
    <title>infinity-icon</title>
    <desc>Created with Sketch.</desc>
    <defs></defs>
    <g id="01_Home_1200_01-(1120+)" stroke="none" stroke-width="1" fill="none" fill-rule="evenodd" transform="translate(-667.000000, -4303.000000)">
        <g id="footer" transform="translate(100.000000, 4290.000000)" fill="#000000">
            <g id="footer-copyright" transform="translate(390.000000, 0.000000)">
                <path d="M219.26,24.22 C219.26,25.5800068 218.320009,27.1399912 216.44,28.9 C214.47999,30.7800094 212.580009,31.72 210.74,31.72 C209.179992,31.72 207.140013,31.1000062 204.62,29.86 C204.299998,29.659999 202.260019,28.460011 198.5,26.26 C196.339989,29.860018 193.060022,31.5400012 188.66,31.3 C186.61999,31.2199996 184.440012,30.3400084 182.12,28.66 C179.679988,26.8999912 178.180003,24.9600106 177.62,22.84 C177.459999,22.0799962 177.38,21.3400036 177.38,20.62 C177.38,18.5399896 178.219992,16.9200058 179.9,15.76 C181.380007,14.7199948 183.319988,14.2 185.72,14.2 C187.560009,14.2 189.43999,14.6399956 191.36,15.52 C192.240004,15.9600022 194.019987,17.0399914 196.7,18.76 C198.66001,16.959991 200.279994,15.7200034 201.56,15.04 C203.320009,14.1199954 205.259989,13.66 207.38,13.66 C209.500011,13.66 212.009986,14.9799868 214.91,17.62 C217.810015,20.2600132 219.26,22.4599912 219.26,24.22 Z M213.32,25.3 C213.32,24.2199946 212.100012,22.8000088 209.66,21.04 C208.539994,20.239996 207.180008,19.84 205.58,19.84 C204.019992,19.84 203.040002,20.239996 202.64,21.04 C207.880026,24.640018 211.079994,26.44 212.24,26.44 C212.960004,26.44 213.32,26.0600038 213.32,25.3 Z M193.4,23.32 C188.359975,20.8399876 185.440004,19.6 184.64,19.6 C184.039997,19.6 183.74,19.8799972 183.74,20.44 C183.74,21.0800032 184.069997,21.7699963 184.73,22.51 C185.390003,23.2500037 186.099996,23.7599986 186.86,24.04 C188.260007,24.6800032 189.419995,25 190.34,25 C191.580006,25 192.599996,24.4400056 193.4,23.32 Z" id="infinity-icon"></path>
            </g>
        </g>
    </g>
</svg>